<svg id="Layer_3" height="512" viewBox="0 0 64 64" width="512" xmlns="http://www.w3.org/2000/svg" data-name="Layer 3"><path d="m37 3h-34v6h34zm-10 4h-2v-2h2zm4 0h-2v-2h2zm4 0h-2v-2h2z"/><path d="m9 49h46v-28h-14v-2h15a1 1 0 0 1 1 1v30a1 1 0 0 1 -1 1h-48a1 1 0 0 1 -1-1v-5h-2v8h54v-33a3 3 0 0 0 -3-3h-17v27a1 1 0 0 1 -1 1h-29z"/><path d="m37 11h-34v32h34zm-31 3h14v12h-4v-1a3 3 0 0 0 -6 0v1h-4zm25 25h-26v-2h26zm4 0h-2v-2h2zm0-4h-30v-2h30zm0-4h-30v-2h30zm0-4h-12v-2h12zm0-4h-12v-2h12zm0-4h-12v-2h12zm0-4h-12v-2h12z"/><path d="m40.5 55-1.5 3h-14l-1.5-3h-20.5v3a3 3 0 0 0 3 3h52a3 3 0 0 0 3-3v-3z"/><circle cx="13" cy="20" r="2"/></svg>